<?xml version="1.0" encoding="UTF-8"?>
<svg id="Layer_1" data-name="Layer 1" xmlns="http://www.w3.org/2000/svg" viewBox="0 0 1080 261.84">
  <defs>
    <style>
      .cls-1 {
        fill: #1b3042;
      }

      .cls-2 {
        fill: #129ab5;
      }

      .cls-3 {
        fill: #0988a7;
      }

      .cls-4 {
        fill: #1badc3;
      }

      .cls-5 {
        fill: #007599;
      }
    </style>
  </defs>
  <path class="cls-1" d="M396.34,94.65v89.46h-18.15l-40.72-58.73v58.73h-17.89v-89.46h18.16l40.71,58.73v-58.73h17.9Z"/>
  <path class="cls-1" d="M409.49,151.05c0-19.71,15.31-34.62,35.53-34.62s35.52,14.91,35.52,34.62-15.31,34.62-35.52,34.62-35.53-14.91-35.53-34.62h0ZM463.17,151.05c0-10.37-7.65-18.28-18.15-18.28s-18.16,7.91-18.16,18.28,7.78,18.28,18.16,18.28,18.15-7.91,18.15-18.28Z"/>
  <path class="cls-1" d="M531.39,116.95v17.37h-2.85c-12.05,0-19.05,7.13-19.05,18.41v31.38h-16.86v-66.12h16.86v8.56c4.79-6.09,11.28-9.59,19.05-9.59h2.85Z"/>
  <path class="cls-1" d="M606.62,90.76v93.35h-16.85v-7.91c-5.32,5.83-12.71,9.46-21.53,9.46-18.41,0-32.28-14.91-32.28-34.62s13.87-34.62,32.28-34.62c8.82,0,16.2,3.63,21.53,9.46v-35.13h16.85ZM589.77,151.05c0-10.37-7.78-18.28-18.28-18.28s-18.15,7.91-18.15,18.28,7.78,18.28,18.15,18.28,18.28-7.91,18.28-18.28Z"/>
  <path class="cls-4" d="M620.54,97.76c0-5.96,4.68-10.5,10.63-10.5s10.64,4.54,10.64,10.5-4.68,10.51-10.64,10.51-10.63-4.54-10.63-10.51h0Z"/>
  <rect class="cls-1" x="622.74" y="117.99" width="16.86" height="66.12"/>
  <path class="cls-1" d="M651.68,151.05c0-19.71,15.3-34.62,35.52-34.62,13.36,0,24.5,6.48,30.46,16.47l-14.65,8.82c-2.98-5.31-8.82-8.95-15.82-8.95-10.36,0-18.15,7.91-18.15,18.28s7.78,18.28,18.15,18.28c7,0,12.84-3.63,15.82-8.95l14.65,8.82c-5.97,9.99-17.11,16.47-30.46,16.47-20.23,0-35.52-14.91-35.52-34.62h0Z"/>
  <path class="cls-1" d="M804.05,94.65v89.46h-8.05v-41.23h-56.39v41.23h-7.91v-89.46h7.91v40.71h56.39v-40.71h8.05Z"/>
  <path class="cls-1" d="M821.61,151.05c0-19.71,15.03-34.62,35-34.62s34.87,14.91,34.87,34.62-15.03,34.62-34.87,34.62-35-14.91-35-34.62h0ZM883.7,151.05c0-15.56-11.54-27.36-27.09-27.36s-27.23,11.8-27.23,27.36,11.67,27.35,27.23,27.35,27.09-11.8,27.09-27.35h0Z"/>
  <path class="cls-1" d="M902.68,175.16l4.28-5.44c4.93,5.57,12.58,9.08,21.65,9.08,10.38,0,18.16-4.67,18.16-11.93,0-8.04-8.69-10.37-18.28-12.71-11.15-2.85-23.59-6.09-23.59-19.19,0-12.06,11.28-18.54,24.24-18.54,9.99,0,18.02,3.89,23.34,9.21l-4.28,5.57c-4.41-4.79-11.15-7.91-18.93-7.91-9.21,0-16.59,4.28-16.59,11.15,0,8.17,8.82,10.5,18.67,12.83,11.02,2.72,23.21,5.84,23.21,18.8s-11.28,19.58-25.8,19.58c-11.16,0-20.23-4.41-26.07-10.51h0Z"/>
  <path class="cls-1" d="M983.22,124.86v42.26c0,8.17,4.41,11.28,11.68,11.28,3.88,0,6.74-1.03,9.46-2.46v7.13c-3.24,1.68-6.34,2.59-10.88,2.59-11.41,0-17.77-5.84-17.77-17.38v-43.43h-12.84v-6.87h12.84v-18.41h7.52v18.41h21.13v6.87h-21.13,0Z"/>
  <path class="cls-4" d="M230.06,150.84c0,20.08-15.52,36.42-35.17,38.12-1.59,1.23-3.25,2.32-4.99,3.34,2.43-.04,4.89-.08,7.35-.11,19.41-.29,38.51-.59,41.61-.59,17.53,0,31.79-14.26,31.79-31.79,0-16.53-12.74-30.01-28.89-31.49-2.63,6.62-6.69,12.7-12.07,17.7.2,1.43.37,3.08.37,4.82h0Z"/>
  <path class="cls-5" d="M121.48,160.16c-12.02-2.77-21.51-11.04-26.29-21.79-10.86,3.63-18.76,13.78-18.76,25.85,0,15.09,12.28,27.38,27.37,27.38h38.72c-10.87-6.83-18.8-18.04-21.05-31.43h0Z"/>
  <path class="cls-3" d="M153.15,150.84c0-4.88.96-9.7,2.86-14.34-4.84-7.69-7.39-16.52-7.39-25.64,0-4.31.62-8.47,1.68-12.45-5.55-4.6-12.57-7.3-20.13-7.3-17.53,0-31.79,14.26-31.79,31.78,0,15.55,11.17,28.69,26.57,31.25l2.44.41.29,2.46c2.31,20.01,19.16,35.1,39.18,35.1,5.93,0,11.51-1.4,16.56-3.74-17.27-3.77-30.26-19.15-30.26-37.53h0Z"/>
  <path class="cls-2" d="M155.2,110.85c0,8.4,2.51,16.52,7.25,23.47l1.06,1.54-.78,1.69c-1.98,4.29-2.99,8.77-2.99,13.28,0,17.57,14.3,31.87,31.87,31.87s31.87-14.3,31.87-31.87c0-1.89-.25-3.71-.56-5.5l-.33-1.84,1.41-1.22c9.27-8,14.58-19.46,14.58-31.42,0-22.99-18.7-41.7-41.7-41.7s-41.7,18.7-41.7,41.7h0Z"/>
</svg>